<svg xmlns="http://www.w3.org/2000/svg" viewBox="42.81 119.17 670.38 362.57"><g id="freepik--Floor--inject-7"><path d="M713.19,466.14c0,.14-150.08.26-335.17.26s-335.21-.12-335.21-.26,150.05-.26,335.21-.26S713.19,466,713.19,466.14Z" style="fill:#263238"/></g><g id="freepik--character-2--inject-7"><polygon points="604.74 397.44 604.74 465.6 612.82 465.6 615.83 397.25 604.74 397.44" style="fill:#263238"/><polygon points="471.86 397.25 475.72 465.6 483.37 465.6 483.46 397.44 471.86 397.25" style="fill:#263238"/><rect x="459.18" y="353.13" width="151.39" height="49.33" rx="6.54" style="fill:#455a64"/><path d="M617.46,331.07c1.81-13.65,3.29-28.36-3.27-40.46-6.82-12.58-21.85-19.71-36.1-18.43s-27.24,10.3-34.74,22.48-9.78,27.17-7.78,41.33" style="fill:#455a64"/><path d="M548.29,385.09c0,.14-17.25.26-38.53.26s-38.54-.12-38.54-.26,17.25-.27,38.54-.27S548.29,384.94,548.29,385.09Z" style="fill:#263238"/><path d="M548.84,384.8s-3.28,2.81-7.4,6.18-7.5,6.06-7.54,6,3.28-2.81,7.41-6.18S548.81,384.75,548.84,384.8Z" style="fill:#fafafa"/><path d="M534.12,368.87c0,.05-10.28,7.39-23,16.4S488,401.55,487.94,401.5s10.27-7.39,23-16.4S534.09,368.83,534.12,368.87Z" style="fill:#fafafa"/><path d="M499,368.12c0,.05-6.73,5-15.11,11.05s-15.21,10.92-15.24,10.88,6.73-5,15.12-11.05S499,368.08,499,368.12Z" style="fill:#fafafa"/><path d="M483.32,357.5l-.16.11-.48.28-1.76,1c-1.49.86-3.51,2.1-5.67,3.58s-4,2.93-5.37,4l-1.58,1.28-.43.35-.16.11a.54.54,0,0,1,.13-.14l.41-.38c.35-.33.88-.78,1.53-1.34,1.32-1.1,3.19-2.57,5.36-4.06s4.2-2.71,5.7-3.54c.76-.41,1.37-.74,1.8-.95l.5-.25Z" style="fill:#fafafa"/><path d="M616.56,295.3s-.1.1-.3.27l-.89.75c-.78.65-1.92,1.56-3.34,2.68-2.85,2.23-6.86,5.21-11.44,8.3s-8.85,5.69-12,7.49c-1.56.9-2.84,1.62-3.73,2.1l-1,.54a3.57,3.57,0,0,1-.37.18l.35-.21,1-.59,3.7-2.15c3.11-1.83,7.37-4.45,11.94-7.53s8.6-6.05,11.47-8.25c1.37-1.06,2.5-1.95,3.38-2.62l.91-.72Z" style="fill:#fafafa"/><path d="M592.87,279.82a2.1,2.1,0,0,1,.42.21,11.76,11.76,0,0,1,1.15.69,21.33,21.33,0,0,1,3.74,3.22,30.46,30.46,0,0,1,7.17,14.46,57.61,57.61,0,0,1,.71,16.21c-.17,2.07-.36,3.74-.51,4.89l-.18,1.32a1.54,1.54,0,0,1-.1.46,12.13,12.13,0,0,1,.08-1.8c.09-1.16.22-2.83.34-4.9a61.87,61.87,0,0,0-.85-16.08,31.23,31.23,0,0,0-6.93-14.32A30.65,30.65,0,0,0,592.87,279.82Z" style="fill:#263238"/><path d="M607.57,281.51l-.14.14L607,282c-.38.31-.93.75-1.62,1.28-1.38,1-3.33,2.46-5.56,3.9s-4.32,2.63-5.85,3.46c-.77.41-1.39.73-1.83.94l-.51.24a1,1,0,0,1-.18.08s0-.05.16-.11l.49-.28,1.8-1c1.51-.86,3.58-2.07,5.81-3.51s4.18-2.82,5.58-3.84L607,282l.45-.33Z" style="fill:#fafafa"/><path d="M442.56,427.1l1,24.75s-24.83,9.34-25.09,13.93l48.07-.22,0-38.64Z" style="fill:#407BFF"/><g style="opacity:0.6000000000000001"><path d="M458.42,449.7a2,2,0,0,1,1.37,2.24,1.89,1.89,0,0,1-2.2,1.37,2.06,2.06,0,0,1-1.44-2.37,2,2,0,0,1,2.45-1.18" style="fill:#fff"/></g><g style="opacity:0.6000000000000001"><path d="M466.55,465.56l-.15-3.9-46,1.67s-2.14.95-1.89,2.45Z" style="fill:#fff"/></g><path d="M442.79,451.61c0,.24,1.18.34,2.34,1.09s1.78,1.73,2,1.64-.14-1.45-1.56-2.33S442.73,451.4,442.79,451.61Z" style="fill:#263238"/><path d="M437.75,453.72c-.05.23,1,.62,1.77,1.61s1,2,1.27,2,.38-1.34-.64-2.55S437.76,453.5,437.75,453.72Z" style="fill:#263238"/><path d="M434.92,459.77c.21.05.53-1.13-.08-2.41s-1.71-1.79-1.8-1.59.58.88,1.06,1.94S434.68,459.75,434.92,459.77Z" style="fill:#263238"/><path d="M443.18,446c.1.21,1.18-.12,2.5,0s2.37.5,2.49.3-.88-1-2.44-1.11S443.07,445.76,443.18,446Z" style="fill:#263238"/><g style="opacity:0.30000000000000004"><polygon points="442.77 432 442.94 436.41 466.56 436.09 466.58 432.11 442.77 432"/></g><path d="M443.07,441a4.69,4.69,0,0,0,2.41,0,10.81,10.81,0,0,0,2.52-.78,12.32,12.32,0,0,0,1.37-.74,3.17,3.17,0,0,0,.73-.57,1,1,0,0,0,.1-1.25,1.26,1.26,0,0,0-1-.53,3,3,0,0,0-.9.13,8.27,8.27,0,0,0-1.5.52,8.56,8.56,0,0,0-2.21,1.46c-1.11,1-1.49,1.92-1.41,2s.65-.66,1.78-1.52a9.27,9.27,0,0,1,2.14-1.22,8.24,8.24,0,0,1,1.38-.43c.51-.14.94-.15,1.07.08s.06.12,0,.27a2.51,2.51,0,0,1-.53.42,13.76,13.76,0,0,1-1.27.73,12.86,12.86,0,0,1-2.32.9A15.78,15.78,0,0,0,443.07,441Z" style="fill:#263238"/><path d="M443.38,441.28A3.88,3.88,0,0,0,444,439a7.79,7.79,0,0,0-1-4.09,2,2,0,0,0-1.54-1.21,1.13,1.13,0,0,0-1,.68,2.91,2.91,0,0,0-.24.88,5.18,5.18,0,0,0,0,1.62,5.58,5.58,0,0,0,1,2.49c.95,1.24,1.93,1.51,1.95,1.43s-.75-.56-1.47-1.76a5.39,5.39,0,0,1-.77-2.26,4.67,4.67,0,0,1,0-1.39c.07-.51.26-.92.45-.87s.65.38.85.78a9,9,0,0,1,.6,1.31,8.86,8.86,0,0,1,.48,2.4C443.5,440.37,443.25,441.25,443.38,441.28Z" style="fill:#263238"/><path d="M510.58,320.53,455,311.77A19.34,19.34,0,0,0,439.7,316h0a19.32,19.32,0,0,0-7,15.6l3.95,101.09H471V354.16l32.9.61,26.09-23,18.82-3.34,14-8.54Z" style="fill:#263238"/><path d="M471,334.32a1,1,0,0,1,0,.25c0,.2,0,.44.05.74,0,.66.08,1.62.11,2.87.08,2.49.15,6.09.21,10.54.12,8.9.21,21.19.24,34.77s0,25.89-.15,34.79c-.06,4.45-.13,8.05-.23,10.54,0,1.24-.09,2.21-.16,2.86,0,.3-.05.55-.07.74s0,.26,0,.25a.93.93,0,0,1,0-.25l0-.75c0-.65,0-1.61.05-2.86,0-2.49.06-6.09.07-10.54V383.49C471,356.77,471,337.14,471,334.32Z" style="fill:#455a64"/><path d="M521.89,436.19l13.34,20.88s-16.75,20.57-14.66,24.67L562,457.34,542.54,424Z" style="fill:#407BFF"/><g style="opacity:0.6000000000000001"><path d="M547,447.73a2,2,0,0,1,2.3,1.25,1.87,1.87,0,0,1-1.21,2.29,2.06,2.06,0,0,1-2.43-1.32,2,2,0,0,1,1.52-2.25" style="fill:#fff"/></g><g style="opacity:0.6000000000000001"><path d="M562,457.34l-2.09-3.29L521,478.68s-1.37,1.89-.4,3.06Z" style="fill:#fff"/></g><path d="M534.43,457.26c.13.2,1.19-.31,2.57-.24s2.41.6,2.55.41-.85-1.18-2.52-1.23S534.28,457.1,534.43,457.26Z" style="fill:#263238"/><path d="M531.15,461.62c.07.22,1.15.05,2.34.5s1.92,1.24,2.11,1.11-.34-1.35-1.84-1.88S531,461.42,531.15,461.62Z" style="fill:#263238"/><path d="M531.74,468.27c.21-.07-.1-1.24-1.27-2s-2.38-.69-2.37-.47.95.47,1.9,1.14S531.53,468.37,531.74,468.27Z" style="fill:#263238"/><path d="M531.92,452.16c.19.14,1-.69,2.15-1.28s2.29-.76,2.29-1-1.28-.45-2.67.27S531.73,452.06,531.92,452.16Z" style="fill:#263238"/><g style="opacity:0.30000000000000004"><polygon points="524.54 440.33 526.91 444.05 547.16 431.87 545.16 428.43 524.54 440.33"/></g><path d="M529.31,447.9c.05.09.92-.26,2.07-1.23a11.12,11.12,0,0,0,1.77-1.95,10.71,10.71,0,0,0,.82-1.33,3,3,0,0,0,.34-.86,1,1,0,0,0-.54-1.13,1.3,1.3,0,0,0-1.16.06,3,3,0,0,0-.71.57,8.11,8.11,0,0,0-1,1.2,8.6,8.6,0,0,0-1.18,2.38,4.08,4.08,0,0,0-.22,2.41c.13,0,.22-.9.77-2.21a9.55,9.55,0,0,1,1.23-2.13,8.87,8.87,0,0,1,1-1.07c.37-.38.74-.6,1-.47s.11.08.09.26a2.63,2.63,0,0,1-.25.63,12.8,12.8,0,0,1-.73,1.27,14.12,14.12,0,0,1-1.55,1.95C530,447.28,529.24,447.79,529.31,447.9Z" style="fill:#263238"/><path d="M529.74,448a3.8,3.8,0,0,0-.63-2.33,7.83,7.83,0,0,0-2.89-3,2,2,0,0,0-1.94-.27,1.14,1.14,0,0,0-.53,1.09,3.12,3.12,0,0,0,.24.89,5.31,5.31,0,0,0,.82,1.39,5.41,5.41,0,0,0,2.15,1.62,3.14,3.14,0,0,0,2.4.27,22.18,22.18,0,0,1-2.15-.79,5.62,5.62,0,0,1-1.81-1.56,4.93,4.93,0,0,1-.66-1.22c-.2-.48-.24-.93,0-1a1.35,1.35,0,0,1,1.12.25,8.18,8.18,0,0,1,1.18.82,8.8,8.8,0,0,1,1.62,1.83C529.38,447.19,529.61,448.07,529.74,448Z" style="fill:#263238"/><path d="M445,262.55l-16.08-8.19c-4.19-1.81-5.79-2.85-5.4-3.61.52-1,.28-.65,8.36,1.56,0,0-11.51-3.26-8.46-4.51.53-.22,2.38.06,4.4.48-2.92-1-4-2-3.84-2.77.3-1.32,7.19.29,10.39,1.11-2.64-.71-7.67-2.12-8.72-2.77-1.43-.89.5-1.54,2.25-1.62,2-.1,13.46,1,16.8,1.14a2,2,0,0,0,2.28-1.94c-.69-4.79,1.33-8.89,2.4-9.75s2.6.33,2.18,1.79a17.88,17.88,0,0,0-.22,4.9,11.54,11.54,0,0,0,.86,3.81c.58,1.41,1.13,2.58,1.62,3.56l13.15,13.06-10.56,13.39Z" style="fill:#ffbe9d"/><path d="M436.07,253.93c-.05.2-2.56-.37-5.6-1.28s-5.45-1.82-5.38-2,2.57.38,5.6,1.29S436.12,253.73,436.07,253.93Z" style="fill:#eb996e"/><path d="M438.18,250.54c-.05.21-2.75-.26-6-1s-5.92-1.57-5.87-1.78,2.75.26,6,1S438.23,250.34,438.18,250.54Z" style="fill:#eb996e"/><path d="M439.82,247.63c-.05.21-2.61-.19-5.74-.88s-5.61-1.42-5.57-1.63,2.62.19,5.74.89S439.86,247.43,439.82,247.63Z" style="fill:#eb996e"/><path d="M516.07,151.43c4.1-1.25,8.36,2.41,12.56,1.59,2.55-.5,4.48-2.54,6.75-3.8a13.07,13.07,0,0,1,11.65-.45c3.47,1.76,5.7,3.64,6.17,7.5,3.15-1.81,8.42,2.16,10.21,6s1.34,7.79.32,11.89a55.67,55.67,0,0,1-9.23,19.65c-.38.52-1,1.09-1.57.82a1.4,1.4,0,0,1-.61-1.14c-.6-3.75-.13-7.58.2-11.37s.48-7.69-.71-11.3-4-6.9-7.75-7.64A12.05,12.05,0,0,0,536,164.9c-2.45,1.37-4.6,3.21-6.93,4.78a15.54,15.54,0,0,1-7.76,3c-2.81.13-5.81-1.2-7-3.74s.15-6.15,2.89-6.73a5.52,5.52,0,0,1-1.11-10.78Z" style="fill:#263238"/><path d="M557.83,175.31l-4.06,42.44c-.69,7.22-8.26,17.92-15.44,16.87h0c-6.69-1-10.46-12.57-9.81-19.31.31-3.19.56-5.86.57-6.19,0,0-10.7-2.05-10.46-12.82.12-5.2,1.23-15.9,2.36-25.57A20,20,0,0,1,541.62,153l1,0C553.84,154.09,559.19,164.17,557.83,175.31Z" style="fill:#ffbe9d"/><path d="M529.08,209a25,25,0,0,0,14.17-3.5s-3.59,7.63-14.29,6.28Z" style="fill:#eb996e"/><path d="M523.87,178.05a1.54,1.54,0,0,0,1.43,1.61,1.48,1.48,0,0,0,1.63-1.34,1.54,1.54,0,0,0-1.43-1.6A1.48,1.48,0,0,0,523.87,178.05Z" style="fill:#263238"/><path d="M523.11,176.1c.19.2,1.38-.62,3-.55s2.83.93,3,.73-.09-.45-.61-.86a4.19,4.19,0,0,0-2.41-.83,4.05,4.05,0,0,0-2.42.68C523.21,175.65,523,176,523.11,176.1Z" style="fill:#263238"/><path d="M540.07,179.18a1.54,1.54,0,0,0,1.43,1.61,1.48,1.48,0,0,0,1.63-1.33,1.54,1.54,0,0,0-1.42-1.61A1.48,1.48,0,0,0,540.07,179.18Z" style="fill:#263238"/><path d="M539.36,177c.18.2,1.38-.62,3-.56s2.84.94,3,.74-.09-.45-.61-.86a4.3,4.3,0,0,0-2.41-.84,4.05,4.05,0,0,0-2.42.69C539.46,176.53,539.27,176.88,539.36,177Z" style="fill:#263238"/><path d="M532.93,189a11.06,11.06,0,0,0-2.67-.58c-.42-.06-.82-.15-.88-.44a2.12,2.12,0,0,1,.33-1.25l1.36-3.17c1.89-4.52,3.28-8.24,3.1-8.31s-1.87,3.52-3.76,8c-.46,1.12-.9,2.18-1.31,3.2a2.38,2.38,0,0,0-.28,1.65,1,1,0,0,0,.67.64,3,3,0,0,0,.71.12A10.44,10.44,0,0,0,532.93,189Z" style="fill:#263238"/><path d="M537.76,190.35c-.27,0-.34,1.77-1.92,3s-3.49.95-3.51,1.2.41.37,1.22.42a4.51,4.51,0,0,0,2.93-.91,3.94,3.94,0,0,0,1.49-2.51C538.06,190.79,537.88,190.34,537.76,190.35Z" style="fill:#263238"/><path d="M539.16,170.48c.15.45,1.81.3,3.74.6s3.48.89,3.75.49c.13-.19-.13-.62-.75-1.08a6.62,6.62,0,0,0-5.71-.83C539.47,169.92,539.1,170.26,539.16,170.48Z" style="fill:#263238"/><path d="M523.89,171.33c.28.39,1.43,0,2.8.07s2.52.34,2.8-.05c.13-.18,0-.57-.54-.94a4.08,4.08,0,0,0-4.51,0C523.94,170.76,523.77,171.14,523.89,171.33Z" style="fill:#263238"/><path d="M556.68,183.25c.18-.07,7.47-1.93,7,5.42s-7.78,5.34-7.77,5.13S556.68,183.25,556.68,183.25Z" style="fill:#ffbe9d"/><path d="M558.32,191.16s.12.1.33.22a1.28,1.28,0,0,0,1,.08,3.16,3.16,0,0,0,1.65-2.74,4.17,4.17,0,0,0-.23-1.86,1.5,1.5,0,0,0-.9-1.05.65.65,0,0,0-.78.3c-.11.2-.07.35-.11.36s-.15-.13-.07-.43a.76.76,0,0,1,.32-.44.92.92,0,0,1,.72-.14,1.79,1.79,0,0,1,1.26,1.23,4.25,4.25,0,0,1,.3,2.07c-.14,1.48-1,2.82-2.08,3.05a1.39,1.39,0,0,1-1.16-.27C558.32,191.34,558.29,191.18,558.32,191.16Z" style="fill:#eb996e"/><path d="M518.79,168.42a15.54,15.54,0,0,0,13.91-2.63c2.7-2.13,4.83-5.25,8.15-6.14a8.74,8.74,0,0,1,6.65,1.15,16.86,16.86,0,0,1,4.91,4.83c-2.27,5.4-1.09,11.56.13,17.28a2.87,2.87,0,0,0,.79,1.73c.85.7,2.17.22,3-.54a9.09,9.09,0,0,0,2.16-4.73,30.21,30.21,0,0,0,.35-11.94,20.61,20.61,0,0,0-5.3-10.6A19.52,19.52,0,0,0,540,151.17a24,24,0,0,0-14.08,4.49,14,14,0,0,0-4.7,5.05" style="fill:#263238"/><path d="M512.89,153.92a1.56,1.56,0,0,0,.05.64,3,3,0,0,0,1,1.55,4.71,4.71,0,0,0,2.72,1,7.58,7.58,0,0,0,1.83-.05,3.82,3.82,0,0,0,1.9-.8,2.61,2.61,0,0,0,1-2,2.31,2.31,0,0,0-1.5-1.94,2.81,2.81,0,0,0-1.32-.21,2.41,2.41,0,0,0-1.28.52,3.36,3.36,0,0,0-1.19,2.53,3.93,3.93,0,0,0,1.07,2.75,5.92,5.92,0,0,0,2.61,1.6,9.69,9.69,0,0,0,6.31-.46,27.63,27.63,0,0,0,5.56-3.09,35.44,35.44,0,0,1,5-3,11,11,0,0,1,5.1-1,10.36,10.36,0,0,1,4.36,1.29,13,13,0,0,1,4.72,4.6,17.8,17.8,0,0,1,.88,1.6,6.2,6.2,0,0,0,.29.57s0-.06,0-.16-.09-.25-.18-.44a13.61,13.61,0,0,0-.82-1.64,13,13,0,0,0-4.73-4.76,10.58,10.58,0,0,0-4.47-1.36,11.08,11.08,0,0,0-5.25,1.05,34.38,34.38,0,0,0-5.11,3,27.05,27.05,0,0,1-5.49,3.05,9.32,9.32,0,0,1-6.07.46,5.51,5.51,0,0,1-2.46-1.5,3.53,3.53,0,0,1-1-2.5,3,3,0,0,1,1.05-2.29,2.2,2.2,0,0,1,2.28-.28,2,2,0,0,1,1.34,1.67,2.34,2.34,0,0,1-.88,1.83,3.69,3.69,0,0,1-1.78.78,8.31,8.31,0,0,1-1.78.07A4.61,4.61,0,0,1,514,156a3,3,0,0,1-1-1.46A4.92,4.92,0,0,1,512.89,153.92Z" style="fill:#455a64"/><path d="M564.5,168.64a12.84,12.84,0,0,1-2.27.51,6.44,6.44,0,0,1-2.46-.35,10.4,10.4,0,0,1-2.71-1.42,8.62,8.62,0,0,1-3.13-4.5,16.27,16.27,0,0,1-.4-2.3,1.68,1.68,0,0,0-.07.64,7.26,7.26,0,0,0,.23,1.73,8.37,8.37,0,0,0,3.15,4.73,10.38,10.38,0,0,0,2.83,1.44,6,6,0,0,0,2.58.28,5.6,5.6,0,0,0,1.69-.45A2,2,0,0,0,564.5,168.64Z" style="fill:#455a64"/><path d="M564,174c0-.07-.87.09-2.26,0a10.13,10.13,0,0,1-8.39-6c-.57-1.27-.7-2.14-.77-2.13a1.93,1.93,0,0,0,.06.62,8.64,8.64,0,0,0,.47,1.61,9.92,9.92,0,0,0,3.41,4.33,9.82,9.82,0,0,0,5.2,1.8,8.05,8.05,0,0,0,1.68-.08A2,2,0,0,0,564,174Z" style="fill:#455a64"/><path d="M544.61,184.2a.18.18,0,0,0,.22-.15.18.18,0,1,0-.35-.09A.19.19,0,0,0,544.61,184.2Z" style="fill:#eb996e"/><path d="M541.47,183.37a.19.19,0,0,0,.23-.18.2.2,0,0,0-.12-.26c-.1,0-.2,0-.23.18A.21.21,0,0,0,541.47,183.37Z" style="fill:#eb996e"/><path d="M539.35,183.25c.1,0,.2-.11.23-.27s0-.31-.14-.32-.2.1-.22.26S539.25,183.23,539.35,183.25Z" style="fill:#eb996e"/><path d="M543,186.13c.1,0,.18,0,.18-.11s-.07-.12-.18-.12-.18,0-.18.11S542.89,186.13,543,186.13Z" style="fill:#eb996e"/><path d="M540.11,185.36a.21.21,0,0,0,.21-.19.21.21,0,0,0-.16-.23.19.19,0,0,0-.2.19A.2.2,0,0,0,540.11,185.36Z" style="fill:#eb996e"/><path d="M525.09,183a.21.21,0,0,0,.23-.16.22.22,0,0,0-.13-.25.21.21,0,0,0-.23.16A.21.21,0,0,0,525.09,183Z" style="fill:#eb996e"/><path d="M523,182.75c.1,0,.19-.07.21-.2s0-.24-.15-.25-.2.08-.22.2A.21.21,0,0,0,523,182.75Z" style="fill:#eb996e"/><path d="M527,183.15a.18.18,0,0,0,.22-.12.19.19,0,0,0-.14-.2.17.17,0,1,0-.08.32Z" style="fill:#eb996e"/><path d="M525.32,185.24a.19.19,0,0,0,.26-.11.21.21,0,0,0-.08-.27.21.21,0,0,0-.18.38Z" style="fill:#eb996e"/><path d="M523.49,184.81a.17.17,0,0,0,.15-.19.18.18,0,0,0-.22-.11.16.16,0,1,0,.07.3Z" style="fill:#eb996e"/><path d="M561.2,193.27a4.85,4.85,0,0,1,.14,1.67,2.45,2.45,0,0,1-.86,1.52,2.21,2.21,0,0,1-2,.45,2,2,0,0,1-1.38-1.48,2.58,2.58,0,0,1,.36-1.7,3.78,3.78,0,0,1,1.12-1.26c0-.05-.75.15-1.34,1.12a2.78,2.78,0,0,0-.47,1.9,2.31,2.31,0,0,0,1.6,1.77,2.53,2.53,0,0,0,2.33-.55,2.61,2.61,0,0,0,.89-1.73,2.82,2.82,0,0,0-.16-1.3A1,1,0,0,0,561.2,193.27Z" style="fill:#263238"/><path d="M561.22,192s-.28.08-.43.49a1.08,1.08,0,0,0,.68,1.38,1,1,0,0,0,.92-.19.8.8,0,0,0,.3-.7c-.05-.46-.35-.59-.36-.54s.13.21.1.54a.57.57,0,0,1-.24.44.69.69,0,0,1-.61.1.81.81,0,0,1-.47-.42.9.9,0,0,1-.07-.55C561.1,192.24,561.26,192.06,561.22,192Z" style="fill:#263238"/><path d="M548.5,327.64c-.9.08-58,6.84-66.94,11.87-4.95,2.78-4.51,7.64-5.28,9.71-3,8.12-.45,16.34,3.76,23.91l41.85,73,26.54-17.85L521.76,370l40.83-4a22.2,22.2,0,0,0,18.62-17.31l4.86-22.52Z" style="fill:#263238"/><path d="M548.43,428.25c-.13.06-7.76-16.37-17-36.69s-16.69-36.86-16.56-36.92,7.76,16.37,17,36.7S548.56,428.19,548.43,428.25Z" style="fill:#455a64"/><path d="M548.5,331.14a.84.84,0,0,1-.27.05l-.78.07-3,.25-11.05.89c-9.32.77-22.22,1.75-36.42,3.1-1.78.17-3.53.36-5.26.56-.85.12-1.72.2-2.54.36a12.7,12.7,0,0,0-2.4.71,17.91,17.91,0,0,0-7.78,5.38,18.86,18.86,0,0,0-2.37,3.77,16.66,16.66,0,0,0-1.2,4,26.54,26.54,0,0,0-.18,7.56,45.32,45.32,0,0,0,2.7,10.68c.47,1.22.89,2.14,1.18,2.77l.34.7a1.23,1.23,0,0,1,.1.25s-.06-.07-.15-.22-.22-.38-.38-.69a28.18,28.18,0,0,1-1.28-2.73,43.5,43.5,0,0,1-2.87-10.71,27,27,0,0,1,.11-7.69,17.31,17.31,0,0,1,1.21-4.13,18.69,18.69,0,0,1,2.42-3.88,18.41,18.41,0,0,1,8-5.56,13.64,13.64,0,0,1,2.48-.73c.87-.18,1.71-.25,2.58-.37,1.73-.2,3.49-.4,5.27-.56,14.21-1.36,27.11-2.28,36.44-2.95l11.06-.73,3-.15.79,0Z" style="fill:#455a64"/><path d="M576.52,290.4l2.15-68.78L557,217l-2.34-3.81-14.56,9.36-2.92,6.57-3.53-7.5-5.25-4L526,222.3,509.71,229a6.81,6.81,0,0,0-3.49,3.24l-18.31,36.54L455.45,246.3,445.4,264,483,296a15.55,15.55,0,0,0,21.08-4.16l9.64-13.69,4,23,.66,23.37,28.3,5.27,39.63-3.68Z" style="fill:#407BFF"/><g style="opacity:0.30000000000000004"><path d="M545.26,329.49a58.56,58.56,0,0,0,39.22-10.08l-2.16-7.88Z"/></g><path d="M578.67,221.62s-13.48,4.14-14.53,17.79-1.56,52.76-1.56,52.76-2.1,1.57-1.58,3.15-38.85,23.62-38.85,23.62L530,332.66s25.09-3,53.22-17.73c14.38-7.53,8.72-66.56,8.45-67.35S587.9,221.59,578.67,221.62Z" style="fill:#407BFF"/><path d="M517.74,301.21a2.5,2.5,0,0,1-.15-.58c-.09-.44-.21-1-.35-1.68-.29-1.53-.68-3.63-1.17-6.19s-1-5.75-1.67-9.2c-.31-1.73-.63-3.55-1-5.43s-.51-3.87-.78-5.88c-1-8-2-15.29-2.64-20.63-.31-2.59-.56-4.71-.75-6.25-.07-.7-.13-1.26-.17-1.71a2.27,2.27,0,0,1,0-.6,2.66,2.66,0,0,1,.13.59l.27,1.69c.23,1.54.53,3.65.91,6.23.72,5.34,1.71,12.59,2.8,20.6q.39,3,.77,5.88c.32,1.88.64,3.7.93,5.44.59,3.45,1.12,6.56,1.56,9.21s.76,4.68,1,6.22c.1.69.18,1.25.25,1.69A2.46,2.46,0,0,1,517.74,301.21Z" style="fill:#263238"/><path d="M530,332.66s-.06-.07-.15-.22l-.42-.68-1.58-2.67L522,319l-.1-.16.19-.07a95.05,95.05,0,0,0,17.49-9.52c6.47-4.2,13.46-9.39,21.66-13.74l-.11.36a3.47,3.47,0,0,1,2.54-4.95l-.23.22.41-3.17a165,165,0,0,0,1.09-27.4c-.17-4.21-.58-8.2-.82-12a52.17,52.17,0,0,1,.21-10.47,25.81,25.81,0,0,1,2.53-8.26,19.53,19.53,0,0,1,3.85-5.27,14.71,14.71,0,0,1,3.33-2.42c.41-.23.75-.35,1-.46l.34-.13a17.23,17.23,0,0,0-4.5,3.16,19.38,19.38,0,0,0-3.73,5.25,25.74,25.74,0,0,0-2.42,8.18,52.32,52.32,0,0,0-.15,10.39c.26,3.74.68,7.74.87,12a162.72,162.72,0,0,1-1,27.49c-.14,1.09-.29,2.17-.42,3.18l0,.2-.2,0a3,3,0,0,0-2.14,4.17l.14.23-.24.13c-8.15,4.31-15.15,9.48-21.65,13.65a93.25,93.25,0,0,1-17.63,9.46l.08-.24L528,329l1.51,2.71.38.71A1.12,1.12,0,0,1,530,332.66Z" style="fill:#263238"/><path d="M568.34,302.59a13.31,13.31,0,0,0-7.17-7.34,3.36,3.36,0,0,1,1.54.4,10,10,0,0,1,5.26,5.4A3.4,3.4,0,0,1,568.34,302.59Z" style="fill:#263238"/><path d="M570.35,299.18a23.26,23.26,0,0,0-2.82-4.47,22.13,22.13,0,0,0-4.13-3.28,8.73,8.73,0,0,1,4.51,2.94A8.91,8.91,0,0,1,570.35,299.18Z" style="fill:#263238"/><path d="M583.25,314.93a2.16,2.16,0,0,1-.49.29l-1.45.71c-1.27.61-3.11,1.46-5.4,2.47-4.59,2-11,4.71-18.19,7.31a149.52,149.52,0,0,1-18.78,5.63,58.78,58.78,0,0,1-5.86,1l-1.61.17a2.26,2.26,0,0,1-.57,0,2.42,2.42,0,0,1,.56-.13l1.59-.26c1.39-.17,3.36-.62,5.81-1.15a174.25,174.25,0,0,0,18.68-5.76c7.19-2.59,13.6-5.21,18.22-7.16l5.47-2.31,1.48-.63A2.19,2.19,0,0,1,583.25,314.93Z" style="fill:#263238"/><path d="M532.67,221.75s-.12.18-.29.51a9.37,9.37,0,0,0-.59,1.47,28.13,28.13,0,0,0-1.06,5.18l-.08.76-.4-.64-.11-.18c-1.13-1.85-2-3.58-2.78-4.72s-1.4-1.77-1.34-1.83a5.59,5.59,0,0,1,1.63,1.61,51.4,51.4,0,0,1,2.93,4.66l.11.18-.48.11a21.24,21.24,0,0,1,1.24-5.25,6.42,6.42,0,0,1,.76-1.46C532.45,221.84,532.66,221.73,532.67,221.75Z" style="fill:#263238"/><path d="M554.86,219.1c0,.07-1.17.86-3,2.36a39.59,39.59,0,0,0-6.29,6.55,41.12,41.12,0,0,0-2.33,3.45l-.27.45-.17-.5c-.84-2.41-1.54-4.48-2-5.95a13.5,13.5,0,0,1-.68-2.38,16.69,16.69,0,0,1,1,2.27c.56,1.45,1.33,3.5,2.2,5.9l-.44,0a34,34,0,0,1,2.34-3.52,34.59,34.59,0,0,1,6.47-6.52,27.37,27.37,0,0,1,2.29-1.59A3.72,3.72,0,0,1,554.86,219.1Z" style="fill:#263238"/><path d="M540.1,294.15a3.13,3.13,0,0,1-.11-.62c-.06-.47-.13-1.06-.22-1.8-.18-1.56-.41-3.82-.68-6.62-.53-5.59-1.15-13.33-1.67-21.89s-.81-16.32-.95-21.94c-.07-2.81-.11-5.08-.12-6.65,0-.74,0-1.34,0-1.81a3.34,3.34,0,0,1,0-.63,2.79,2.79,0,0,1,.07.63l.1,1.8c.07,1.64.16,3.89.28,6.65.24,5.61.59,13.36,1.1,21.92s1.09,16.29,1.52,21.89c.21,2.75.39,5,.51,6.63,0,.74.09,1.34.12,1.81A2.33,2.33,0,0,1,540.1,294.15Z" style="fill:#263238"/><path d="M560,277.16a8.09,8.09,0,0,1-.9,1.14c-.6.72-1.51,1.73-2.65,2.95a114.55,114.55,0,0,1-9.52,9,116.16,116.16,0,0,1-10.47,7.86c-1.4.92-2.55,1.64-3.36,2.11a7.31,7.31,0,0,1-1.28.69A8.32,8.32,0,0,1,533,300l3.26-2.25c2.74-1.91,6.45-4.66,10.35-7.94s7.23-6.48,9.58-8.85l2.77-2.83A6.65,6.65,0,0,1,560,277.16Z" style="fill:#263238"/><path d="M536.78,310.41a40.82,40.82,0,0,1-.16-6.4,38.52,38.52,0,0,1,.37-6.39,40.09,40.09,0,0,1,.15,6.4A38.06,38.06,0,0,1,536.78,310.41Z" style="fill:#263238"/><g style="opacity:0.30000000000000004"><path d="M513.4,278.71a157.85,157.85,0,0,0-2.68-21.32,214.17,214.17,0,0,1-4.89,32Z"/></g><g style="opacity:0.30000000000000004"><path d="M537.21,229.12c1-.84,2.23-.15,2.84,1a8.78,8.78,0,0,1,.54,3.87,4.69,4.69,0,0,0,.41,2.13,1.94,1.94,0,0,0,1.72,1.12,2.93,2.93,0,0,0,2-1.5q6-8.23,11.14-17c-5.57,2.15-9.31,7.44-12.91,13-.15.05-2.92-9-2.92-9-.77,1.95-2,4.34-2.8,6.28"/></g><g style="opacity:0.30000000000000004"><path d="M525.73,222.52a55.21,55.21,0,0,0,8.14,13.15,35.06,35.06,0,0,0-.72-9.69c1,.71,3.05,2.44,4.06,3.14,0,0-2.2-4.76-3.11-6.5-.24-.46-.61-1-1.13-1s-.88.73-1,1.31q-.74,2.84-1.46,5.68A15.66,15.66,0,0,0,526,222.2"/></g><g style="opacity:0.30000000000000004"><path d="M532.81,300.15a8.86,8.86,0,0,1,3.31-8.29c1.94-1.46,4.43-2.06,6.36-3.54,3.34-2.54,4.63-7.34,8.34-9.29,1.39-.73,3.5-.75,4.14.69.57,1.28-.46,2.68-1.43,3.69A102.23,102.23,0,0,1,532.8,300"/></g><g style="opacity:0.30000000000000004"><path d="M561.58,295.82a10.06,10.06,0,0,1,2.94,6.95,10.86,10.86,0,0,0,.1,2.28,2.12,2.12,0,0,0,1.42,1.64,2,2,0,0,0,2.18-1.74,5.33,5.33,0,0,0-.63-3c-1.22-2.77-2.94-5.58-5.73-6.74"/></g><g style="opacity:0.2"><path d="M487.59,268.56c1.59,1.81,2.78,6.54,2.62,8.94s-.75,3-.53,5.42c.05.44-.71.6-.36.87a1.24,1.24,0,0,0,1.78-.71,3.58,3.58,0,0,0-.11-2.19,1.53,1.53,0,0,0,1.89,1.42,2.47,2.47,0,0,0,1.68-2,6.83,6.83,0,0,0-.19-2.73,18.67,18.67,0,0,0-2-5.94,7.12,7.12,0,0,0-5-3.53"/></g><path d="M489.58,283.37a33.28,33.28,0,0,0,.2-7.65,32.68,32.68,0,0,0-2.09-7.38,6.63,6.63,0,0,1,1.14,2,18.71,18.71,0,0,1,1.47,5.32,18.9,18.9,0,0,1-.11,5.52A7.33,7.33,0,0,1,489.58,283.37Z" style="fill:#263238"/><path d="M549.62,402.46c-4.19-18.72,3-50.86,16.29-64.65a59.3,59.3,0,0,1,52.62-16.76v82.33Z" style="fill:#455a64"/><path d="M618.22,367.76c0,.05-13.07,7.85-29.27,17.44s-29.34,17.31-29.37,17.26,13.07-7.86,29.27-17.44S618.19,367.71,618.22,367.76Z" style="fill:#fafafa"/><path d="M618.22,339.74s-.23.16-.69.44l-2,1.23-7.37,4.49c-6.23,3.78-14.85,9-24.42,14.64s-18.26,10.74-24.59,14.34c-3.17,1.79-5.74,3.24-7.53,4.21l-2.06,1.12c-.47.26-.73.38-.73.38s.24-.15.71-.41l2-1.16,7.49-4.27c6.32-3.63,15-8.72,24.57-14.39s18.15-10.83,24.44-14.58l7.41-4.44,2-1.19C618,339.87,618.22,339.74,618.22,339.74Z" style="fill:#fafafa"/><path d="M609.34,321.54l-.49.29-1.44.8-5.3,2.91c-4.48,2.44-10.71,5.74-17.6,9.36l-24.93,13.19s.16-.11.49-.29l1.43-.81,5.3-2.9c4.49-2.44,10.71-5.75,17.61-9.37Z" style="fill:#fafafa"/><path d="M616.81,321.61h-.32l-.94-.09c-.82-.05-2-.25-3.6-.32a66,66,0,0,0-13.24.48c-.69.1-1.4.17-2.12.3l-2.2.45c-1.51.25-3,.75-4.62,1.15a56.76,56.76,0,0,0-9.73,3.92,49.66,49.66,0,0,0-18,15.56,66.74,66.74,0,0,0-6.17,10.81,77,77,0,0,0-4.06,10.87A89.88,89.88,0,0,0,549.43,375c-.51,3.26-.88,6.31-1,9.1a83.13,83.13,0,0,0,.18,13.27c.1,1.57.34,2.76.41,3.59l.11.93a1.54,1.54,0,0,1,0,.32,1.28,1.28,0,0,1-.07-.31c0-.24-.09-.54-.16-.93-.11-.82-.38-2-.51-3.58a77.86,77.86,0,0,1-.35-13.31c.14-2.81.49-5.87,1-9.15a90.89,90.89,0,0,1,2.34-10.3,76.24,76.24,0,0,1,4.06-11,67,67,0,0,1,6.2-10.9,49.9,49.9,0,0,1,18.22-15.69,56.21,56.21,0,0,1,9.83-3.9c1.6-.4,3.13-.89,4.65-1.14l2.22-.43c.73-.12,1.45-.19,2.14-.29A63.67,63.67,0,0,1,612,321c1.57.1,2.77.33,3.6.42l.93.13Z" style="fill:#263238"/><path d="M523,320.36a32,32,0,0,1-6.63-.87,22.81,22.81,0,0,0-8-1c-1.86.29-6.64,2.17-9.69,3s-5.5.14-5.65,1.59,1.45,3.25,4.49,3.25c0,0-3.33,1.1-2.75,1.82s1.59,2.47,3,2.47a3.09,3.09,0,0,0,2.61,2.9s.87,2.17,5.07,3.18c0,0-.32,1.89,2.88,2.47s21.17-7.54,21.17-7.54Z" style="fill:#ffbe9d"/></g><g id="freepik--character-1--inject-7"><path d="M187.21,217.83c-2.42-2.35-6.56-.31-8.59,2.38s-3.47,6.14-6.56,7.5-7.09.18-9.68,2.34c-3.57,3-1.57,9.84-5.43,12.41-1.53,1-3.55,1-5.19,1.84-3.86,2-3.82,7.43-3.22,11.73.84,6,1.75,12.3,5.09,17.4s9.81,8.7,15.58,6.73c5.54-1.89,8.39-7.88,10.64-13.28l9.36-22.44c1.81-4.33,3.63-8.72,4.22-13.37s-.21-9.67-3.16-13.31" style="fill:#263238"/><path d="M180.64,173.67c-.07-2.48,2.22-4.39,4.52-5.3s4.87-1.25,6.93-2.63c1.82-1.23,3-3.14,4.58-4.7a15.25,15.25,0,0,1,25.65,7c.88,3.53.28,7.69-2.5,10-3.23,2.72-8,2.11-12.15,1.27s-8.81-1.68-12.26.74c-2.08,1.47-3.28,3.85-4.55,6s-2.87,4.46-5.27,5.29-5.68-.6-5.77-3.15" style="fill:#263238"/><path d="M180.81,175c.27,2.07-1.23,3.93-2.73,5.4s-3.18,3-3.45,5.09c-.3,2.43,1.47,4.82,1,7.21-.32,1.51-1.5,2.68-2.22,4.06a8.63,8.63,0,0,0-.44,6.36c.62,2.09,1.6,6.76,3.05,8.39a33.5,33.5,0,0,0,16.29,9.71,63,63,0,0,0,18,1c4.93-.3,10.59-.07,14.69-6.85,2.13-3.51,3.18-8.17,4.31-12.12,1-3.39,1.81-7,.8-10.41-.59-2-1.77-3.73-2.35-5.7-.73-2.47-.47-5.11-.76-7.66a17.57,17.57,0,0,0-25-13.88" style="fill:#263238"/><path d="M224.59,183.54c-.46-7.07-5.17-15.73-12.21-15l-22,5.61a4.14,4.14,0,0,0-3.7,4.21l2.47,53-.15,0s5,15,19.54,10.39c2.88-.91,4.2-4.06,4.77-7.3l.15,0c0-.39,0-.75,0-1.11a34.76,34.76,0,0,0,.09-7.28h0c0-4.29,0-6,0-6s9-1.52,10.87-13.31C225.41,201,225.1,191.39,224.59,183.54Z" style="fill:#ffbe9d"/><path d="M223.45,190.61a1.51,1.51,0,0,1-1.45,1.53,1.45,1.45,0,0,1-1.56-1.36,1.51,1.51,0,0,1,1.45-1.53A1.44,1.44,0,0,1,223.45,190.61Z" style="fill:#263238"/><path d="M222.51,188.54c-.18.2-1.33-.65-3-.64s-2.81.82-3,.62.11-.44.62-.82a4.1,4.1,0,0,1,2.4-.74,4,4,0,0,1,2.36.75C222.44,188.09,222.61,188.45,222.51,188.54Z" style="fill:#263238"/><path d="M207,191.17a1.52,1.52,0,0,1-1.46,1.53,1.45,1.45,0,0,1-1.56-1.36,1.51,1.51,0,0,1,1.45-1.53A1.45,1.45,0,0,1,207,191.17Z" style="fill:#263238"/><path d="M206.53,188.88c-.18.19-1.33-.65-3-.64s-2.81.82-3,.62.1-.44.62-.82a4.1,4.1,0,0,1,2.4-.74,4,4,0,0,1,2.35.75C206.45,188.43,206.62,188.79,206.53,188.88Z" style="fill:#263238"/><path d="M212.46,200.92a10.74,10.74,0,0,1,2.64-.48c.42,0,.81-.13.88-.41a2.19,2.19,0,0,0-.28-1.23l-1.24-3.16c-1.71-4.5-3-8.2-2.77-8.26s1.72,3.52,3.43,8c.41,1.11.81,2.16,1.18,3.17a2.41,2.41,0,0,1,.22,1.63,1,1,0,0,1-.68.61,2.74,2.74,0,0,1-.7.1A10.92,10.92,0,0,1,212.46,200.92Z" style="fill:#263238"/><path d="M213.63,220.16A29.93,29.93,0,0,1,197.84,216s3.84,8.09,15.63,7Z" style="fill:#eb996e"/><path d="M211.78,204.84a2.93,2.93,0,0,0-2.63-1.08,2.71,2.71,0,0,0-1.84,1,1.7,1.7,0,0,0-.13,1.94,2,2,0,0,0,2.14.54,6.3,6.3,0,0,0,2.07-1.25,1.61,1.61,0,0,0,.46-.48.54.54,0,0,0,0-.61" style="fill:#eb996e"/><path d="M207.68,202.06c.26,0,.27,1.75,1.78,3s3.39,1.06,3.41,1.3-.42.35-1.21.37a4.43,4.43,0,0,1-2.85-1,3.83,3.83,0,0,1-1.38-2.52C207.36,202.48,207.56,202.05,207.68,202.06Z" style="fill:#263238"/><path d="M207.26,186c-.16.44-1.78.24-3.69.47s-3.45.76-3.7.36c-.12-.19.15-.6.77-1a6.46,6.46,0,0,1,5.63-.64C207,185.47,207.33,185.82,207.26,186Z" style="fill:#263238"/><path d="M221.91,183.83c-.29.37-1.41,0-2.76,0s-2.48.25-2.75-.13c-.11-.19.07-.56.56-.91a4,4,0,0,1,4.44.13C221.87,183.27,222,183.65,221.91,183.83Z" style="fill:#263238"/><path d="M182.18,212.94a10.46,10.46,0,0,0,12.44-11.57c-.36-2.9-1.92-5.84-.92-8.58,1.33-3.62,6.4-4.73,7.75-8.35.78-2.1.08-4.55,1-6.61s2.87-3.05,4.85-3.77,4.11-1.21,5.77-2.5,2.7-3.74,1.63-5.55a111.45,111.45,0,0,0-25.75,6.26c-1.92.71-3.94,1.58-5.07,3.29s-1.15,4.14-1,6.31q.75,15.87,1.48,31.73" style="fill:#263238"/><path d="M182.92,217l-.19-.13-.53-.39c-.45-.36-1.12-.89-1.95-1.62a20.4,20.4,0,0,1-2.77-2.92,10.83,10.83,0,0,1-2.2-4.85,7.37,7.37,0,0,1,1.52-6.19,23.87,23.87,0,0,1,2.74-2.35,6.24,6.24,0,0,0,2.14-2.92c.88-2.4.49-5.18.82-8a16.1,16.1,0,0,1,3.34-8.12,11,11,0,0,1,3.5-2.85,20.62,20.62,0,0,1,4.12-1.39,9.76,9.76,0,0,0,3.62-1.79,14.32,14.32,0,0,0,2.62-2.89c1.48-2.1,2.58-4.34,4-6.21a13.68,13.68,0,0,1,2.32-2.47,9.17,9.17,0,0,1,2.75-1.5,5.87,5.87,0,0,1,5.23.53,4.78,4.78,0,0,1,1.86,3.52,3.45,3.45,0,0,1-.71,2.43,2,2,0,0,1-.48.46l-.18.12s0-.06.15-.16a3.22,3.22,0,0,0,.43-.48,3.51,3.51,0,0,0,.59-2.35,4.61,4.61,0,0,0-1.82-3.31,5.6,5.6,0,0,0-5-.41,8.52,8.52,0,0,0-2.62,1.46A14,14,0,0,0,204,164.6c-1.36,1.84-2.44,4.08-3.94,6.23a14.7,14.7,0,0,1-2.7,3,10.22,10.22,0,0,1-3.79,1.88,21.75,21.75,0,0,0-4,1.37,10.59,10.59,0,0,0-3.33,2.72,15.63,15.63,0,0,0-3.23,7.85c-.35,2.75.05,5.57-.88,8.13a6.88,6.88,0,0,1-2.3,3.11,24.07,24.07,0,0,0-2.71,2.27,7,7,0,0,0-1.48,5.86,10.75,10.75,0,0,0,2.07,4.73,21.15,21.15,0,0,0,2.68,2.94c.8.75,1.45,1.3,1.88,1.69A4.9,4.9,0,0,1,182.92,217Z" style="fill:#455a64"/><polygon points="255.94 298.95 273.3 265.92 264.78 256.77 242.87 277.84 249.02 294.76 255.94 298.95" style="fill:#407BFF"/><path d="M216.06,235.52h0a29,29,0,0,1,16.42,14.95l22.38,47.62,19.28,7.81-17,4.9L242,299.71Z" style="fill:#407BFF"/><path d="M257.16,310.8,249,317.06l-40.52-41.68-23.16-41.84,2.68-7.78L206,233.22l5.17,6.51,2.67-9.06,1.15,1.63,1.87,5.06s17.58,14.63,21.38,26.23c3.16,9.69,2.17,29.69,4.1,35.12Z" style="fill:#fafafa"/><path d="M181,233c-.27.81-17.32,7.66-18.13,13.63s12.25,52.13,12.25,52.13l20.71,18.3H249l-16.87-31.59a80.47,80.47,0,0,0-13.65-18.56c-5-5.06-11-11.32-14.15-15.05-3.37-4.05-17.66-23-17.66-23Z" style="fill:#407BFF"/><path d="M191.69,234.89a19.77,19.77,0,0,1,3,1.35c1.83.9,4.34,2.16,7.1,3.59l3.14,1.64-.36.24a22.72,22.72,0,0,1,.33-5.58,7.67,7.67,0,0,1,.59-2.11,21.73,21.73,0,0,1-.28,2.16,27.34,27.34,0,0,0-.15,5.49l0,.44-.39-.2-3.15-1.61c-2.76-1.43-5.24-2.75-7-3.73A21.85,21.85,0,0,1,191.69,234.89Z" style="fill:#263238"/><path d="M216.31,237.38a6.76,6.76,0,0,1-1,1.62l-.21.3-.11-.37c-.34-1.13-.78-2.72-1.22-4.49,0-.14-.07-.27-.11-.4l.49.06c-1.6,3-2.58,5.55-2.72,5.5a21,21,0,0,1,2.26-5.74l.31-.6.17.65c0,.13.07.27.1.4.45,1.77.83,3.37,1.07,4.53l-.32-.06A6.9,6.9,0,0,1,216.31,237.38Z" style="fill:#263238"/><path d="M232.69,277a10.07,10.07,0,0,1-.85-1.35l-2.17-3.77c-1.82-3.19-4.35-7.58-7.22-12.39s-5.53-9.12-7.46-12.24l-2.28-3.7a9.27,9.27,0,0,1-.79-1.39,8.86,8.86,0,0,1,1,1.28c.58.84,1.41,2.07,2.42,3.61,2,3.07,4.72,7.36,7.6,12.18s5.35,9.24,7.09,12.47c.88,1.62,1.57,2.93,2,3.85A8.57,8.57,0,0,1,232.69,277Z" style="fill:#263238"/><g style="opacity:0.30000000000000004"><path d="M224.5,309.16c3.09.53,6.26,1,9.34.47s6.1-2.53,7.06-5.51a5.82,5.82,0,0,1,1.16-2.67c1.18-1.1,3.08-.42,4.69-.57a5.87,5.87,0,0,0,4.28-3,17.33,17.33,0,0,0,1.79-5.09,7.72,7.72,0,0,0,.32-2.65,2.66,2.66,0,0,0-1.38-2.15c-1.22-.55-2.59.25-3.68,1-8.77,6.32-16.76,13.63-24.73,20.93"/></g><path d="M362.11,372.76l15.45,19.37s24.88-9.21,28.08-5.91l-36.47,31.32-25.32-29.18Z" style="fill:#455a64"/><g style="opacity:0.6000000000000001"><path d="M364.93,400.23a2,2,0,0,0,.43,2.59,1.88,1.88,0,0,0,2.56-.41,2.06,2.06,0,0,0-.46-2.73,2,2,0,0,0-2.63.71" style="fill:#fff"/></g><g style="opacity:0.6000000000000001"><path d="M369.17,417.54l-2.43-3,35.87-28.89s2.23-.69,3,.61Z" style="fill:#fff"/></g><path d="M378,391.43c.14.19-.68,1-1.06,2.36s-.21,2.47-.44,2.54-.84-1.18-.34-2.78S377.89,391.24,378,391.43Z" style="fill:#263238"/><path d="M383.18,389.73c.19.14-.32,1.1-.28,2.38s.55,2.22.37,2.36-1.17-.76-1.19-2.35S383,389.57,383.18,389.73Z" style="fill:#263238"/><path d="M389.28,392.44c-.13.18-1.14-.5-1.52-1.86s.12-2.48.32-2.39.14,1.05.47,2.16S389.45,392.27,389.28,392.44Z" style="fill:#263238"/><path d="M374,387.41c.07.23-1,.68-1.91,1.62s-1.46,1.92-1.68,1.85,0-1.36,1.12-2.44S374,387.2,374,387.41Z" style="fill:#263238"/><g style="opacity:0.30000000000000004"><polygon points="365.16 376.6 367.92 380.05 349.86 395.28 347.25 392.28 365.16 376.6"/></g><path d="M370.79,383.56c.07.08-.54.79-1.83,1.56a10.56,10.56,0,0,1-2.42,1.06,11.29,11.29,0,0,1-1.52.34,2.71,2.71,0,0,1-.92,0,1,1,0,0,1-.9-.87,1.3,1.3,0,0,1,.43-1.08,3.07,3.07,0,0,1,.77-.49,8.52,8.52,0,0,1,1.47-.59,8.4,8.4,0,0,1,2.63-.34,4,4,0,0,1,2.35.56c0,.13-.92-.07-2.34,0a9.22,9.22,0,0,0-2.42.48,8.85,8.85,0,0,0-1.32.58c-.47.23-.81.51-.76.76s0,.13.22.17a2.25,2.25,0,0,0,.67,0,11.85,11.85,0,0,0,1.44-.28,13.5,13.5,0,0,0,2.35-.84A17.35,17.35,0,0,1,370.79,383.56Z" style="fill:#263238"/><path d="M370.78,384c0,.08-.94-.26-2-1.35a7.84,7.84,0,0,1-1.46-2.22,6.94,6.94,0,0,1-.49-1.5,2,2,0,0,1,.37-1.93,1.12,1.12,0,0,1,1.2-.14,3,3,0,0,1,.76.51,5,5,0,0,1,1.06,1.22,5.58,5.58,0,0,1,.84,2.56c.1,1.56-.46,2.41-.53,2.36a18.45,18.45,0,0,0,0-2.29,5.65,5.65,0,0,0-.9-2.21,4.77,4.77,0,0,0-.94-1c-.39-.34-.8-.53-.91-.36a1.38,1.38,0,0,0-.13,1.15,8.09,8.09,0,0,0,.4,1.37,8.65,8.65,0,0,0,1.21,2.13C370.09,383.4,370.85,383.91,370.78,384Z" style="fill:#263238"/><path d="M345.2,428.1l-.93,24.76s24.85,9.27,25.12,13.86l-48.07-.09L321.2,428Z" style="fill:#455a64"/><g style="opacity:0.6000000000000001"><path d="M329.41,450.75A2,2,0,0,0,328,453a1.9,1.9,0,0,0,2.21,1.37,2.07,2.07,0,0,0,1.43-2.38,2,2,0,0,0-2.45-1.17" style="fill:#fff"/></g><g style="opacity:0.6000000000000001"><path d="M321.32,466.63l.14-3.9,46,1.55s2.13.94,1.89,2.44Z" style="fill:#fff"/></g><path d="M345.05,452.62c0,.23-1.19.34-2.34,1.09s-1.78,1.74-2,1.64.13-1.44,1.55-2.33S345.1,452.4,345.05,452.62Z" style="fill:#263238"/><path d="M350.08,454.71c.06.23-1,.63-1.76,1.62s-1,2-1.26,2-.39-1.34.63-2.55S350.08,454.49,350.08,454.71Z" style="fill:#263238"/><path d="M352.94,460.75c-.22.05-.54-1.12.06-2.4s1.71-1.8,1.81-1.6-.59.88-1.07,1.94S353.17,460.73,352.94,460.75Z" style="fill:#263238"/><path d="M344.63,447c-.09.22-1.17-.11-2.5,0s-2.36.5-2.48.3.87-1,2.44-1.12S344.75,446.77,344.63,447Z" style="fill:#263238"/><g style="opacity:0.30000000000000004"><polygon points="345.01 433.01 344.85 437.42 321.23 437.16 321.2 433.18 345.01 433.01"/></g><path d="M344.73,442a4.52,4.52,0,0,1-2.41,0,11.25,11.25,0,0,1-2.51-.78,11.6,11.6,0,0,1-1.38-.74,2.75,2.75,0,0,1-.73-.57,1,1,0,0,1-.11-1.25,1.33,1.33,0,0,1,1-.53,3,3,0,0,1,.91.13,9.31,9.31,0,0,1,1.49.51,8.46,8.46,0,0,1,2.22,1.46c1.11,1,1.49,1.92,1.41,2s-.65-.66-1.78-1.51a9.49,9.49,0,0,0-2.14-1.22,8.34,8.34,0,0,0-1.39-.42c-.5-.14-.94-.14-1.07.08s0,.12.05.27a2.6,2.6,0,0,0,.54.42,13.76,13.76,0,0,0,1.27.73,13.54,13.54,0,0,0,2.32.89A18.17,18.17,0,0,1,344.73,442Z" style="fill:#263238"/><path d="M344.42,442.29a3.93,3.93,0,0,1-.63-2.33,8.09,8.09,0,0,1,.34-2.63,8.24,8.24,0,0,1,.61-1.46,2,2,0,0,1,1.54-1.22,1.15,1.15,0,0,1,1,.68,3.23,3.23,0,0,1,.24.88,5.18,5.18,0,0,1,0,1.62,5.47,5.47,0,0,1-1,2.49c-.95,1.24-1.92,1.52-1.94,1.44s.74-.57,1.46-1.77a5.48,5.48,0,0,0,.76-2.26,4.67,4.67,0,0,0,0-1.39c-.07-.51-.26-.92-.45-.87s-.65.38-.85.79a8.37,8.37,0,0,0-.6,1.3,9,9,0,0,0-.47,2.4C344.3,441.37,344.55,442.25,344.42,442.29Z" style="fill:#263238"/><path d="M266.46,283.38,292.17,224s-14.91,18.67-22.71,18.5c0,0-8.62,19-14.17,34.08l-8.46,21.84Z" style="fill:#fff"/><path d="M266.46,283.38a1.92,1.92,0,0,1-.32.28l-1,.79-3.87,3-14.35,11.1-.5.39.23-.59c2.75-7.17,6-15.72,9.68-25.24s8-19.9,12.88-30.73l.07-.15h.17a9.65,9.65,0,0,0,4.36-1.34,48.32,48.32,0,0,0,10-8c3-3,5.69-6,8.17-9l1.14-1.4-.72,1.66c-7.48,17.17-13.93,32-18.53,42.57-2.31,5.24-4.14,9.42-5.41,12.31-.63,1.41-1.12,2.51-1.47,3.28-.16.35-.29.63-.38.84s-.14.28-.15.27l.11-.3c.09-.22.21-.5.35-.87l1.4-3.32c1.24-2.91,3-7.12,5.28-12.39,4.56-10.57,10.94-25.41,18.34-42.59l.43.25a119.83,119.83,0,0,1-8.2,9.1,48.22,48.22,0,0,1-10.1,8.1,10,10,0,0,1-4.62,1.41l.24-.16c-4.84,10.82-9.24,21.18-12.91,30.69s-7,18.05-9.79,25.19l-.27-.2,14.42-11,3.93-2.95,1-.76C266.33,283.46,266.46,283.38,266.46,283.38Z" style="fill:#263238"/><polygon points="164.47 416.25 172.19 466.72 179.84 466.72 176.07 416.44 164.47 416.25" style="fill:#263238"/><polygon points="300.26 416.44 300.26 466.72 308.34 466.72 311.35 416.25 300.26 416.44" style="fill:#263238"/><path d="M244.93,272.73s3.26-7.49,5-8.53,12.37-5.88,12.37-5.88l-1.09,2.38,10.59-6.32a5,5,0,0,1-.82,4.45c-1.65,2.26-1.1,2.06-1.1,2.06s1.79,1.07.89,2.67a35.1,35.1,0,0,1-2.42,3.55s1.65,2,1,3.9a8.07,8.07,0,0,1,.24,3.92c-.39,2.28-4.51,6.62-4.51,6.62l-20.57,9.79-8.29-14.08Z" style="fill:#ffbe9d"/><path d="M199.56,260.77l12.34,26.34,27.36-11.89s11.35,6.63,9.78,13.87l-24.65,20.25a22.06,22.06,0,0,1-16.69,4.85h0a22.08,22.08,0,0,1-15.77-9.79l-17.84-27.15-10-16.31a15.24,15.24,0,0,1,.42-16.88,12.53,12.53,0,0,1,3.52-3.3C172.51,238.05,185.74,236.87,199.56,260.77Z" style="fill:#407BFF"/><path d="M249.55,289.12l.27-.16.79-.42L253.7,287l11.27-5.6-.05,0a32.27,32.27,0,0,0,3.5-4.46,5.55,5.55,0,0,0,1-2.77,8.08,8.08,0,0,0-.32-3.09l0-.09,0-.07a4.19,4.19,0,0,0-.95-3.66l-.12-.16.12-.15c.71-.94,1.42-1.94,2.06-3a2.14,2.14,0,0,0,.52-1.56,2.2,2.2,0,0,0-1-1.31l.23,0a.34.34,0,0,1-.4-.14.4.4,0,0,1,0-.25,1.28,1.28,0,0,1,.06-.23c.06-.12.11-.23.17-.34l.39-.62c.26-.4.57-.8.82-1.18a4.84,4.84,0,0,0,.76-2.65,3.88,3.88,0,0,0-.19-1.24l.38.13-10.59,6.31-.69.41.33-.73,1.1-2.39.32.33c-4.54,2.09-8.75,4-12.27,5.78a6.84,6.84,0,0,0-1.78,2.11c-.49.78-.92,1.55-1.31,2.29-.79,1.49-1.44,2.86-2,4.06l0,0,0,0-4.48,2.26-1.17.58a2.3,2.3,0,0,1-.42.17,3.44,3.44,0,0,1,.38-.24l1.15-.63,4.42-2.37-.06.06c.53-1.22,1.16-2.6,1.93-4.1.38-.76.81-1.54,1.29-2.33a12.39,12.39,0,0,1,.8-1.19,3.88,3.88,0,0,1,1.1-1.07c3.56-1.89,7.73-3.77,12.27-5.89l.6-.27-.28.6c-.35.78-.72,1.58-1.09,2.39l-.35-.32,10.58-6.33.28-.17.1.3a5,5,0,0,1,.23,1.42,5.4,5.4,0,0,1-.85,2.94c-.29.44-.57.79-.83,1.19-.13.19-.25.39-.36.58a2.7,2.7,0,0,0-.15.29.61.61,0,0,0,0,.11s0,0,0,0H270c-.07,0-.07,0-.11,0s0,0,0,0v0h0c0,.14-.06-.2-.05-.16h0l.22,0a2.7,2.7,0,0,1,1.23,1.66,1.94,1.94,0,0,1-.11,1.07,8.52,8.52,0,0,1-.47.86c-.67,1.07-1.38,2.06-2.11,3V267a6.54,6.54,0,0,1,1,2,3.62,3.62,0,0,1,0,2.16v-.17a8.33,8.33,0,0,1,.34,3.3,4.84,4.84,0,0,1-.36,1.58,9.2,9.2,0,0,1-.74,1.39,32.07,32.07,0,0,1-3.59,4.5l0,0,0,0-11.35,5.44-3.13,1.47-.83.37A1.21,1.21,0,0,1,249.55,289.12Z" style="fill:#eb996e"/><path d="M261.91,260.28a25.93,25.93,0,0,1-4.3,3,26.73,26.73,0,0,1-4.57,2.52,25.93,25.93,0,0,1,4.3-3A26.73,26.73,0,0,1,261.91,260.28Z" style="fill:#eb996e"/><path d="M270.15,260a30.88,30.88,0,0,1-3.84,4.14A30.21,30.21,0,0,1,262.1,268a31.28,31.28,0,0,1,3.84-4.15A30.23,30.23,0,0,1,270.15,260Z" style="fill:#eb996e"/><path d="M269.05,266.37a9.54,9.54,0,0,1-1.8,2.52,9.72,9.72,0,0,1-2.2,2.18,9.37,9.37,0,0,1,1.8-2.52A9.26,9.26,0,0,1,269.05,266.37Z" style="fill:#eb996e"/><path d="M269.42,270.65c.11.09-.34.79-.92,1.62s-1.08,1.49-1.2,1.42.18-.87.77-1.72S269.32,270.55,269.42,270.65Z" style="fill:#eb996e"/><path d="M220.19,312s0-.05.12-.12l.39-.33,1.55-1.25,5.92-4.69L249.26,289l-.09.17a10.43,10.43,0,0,0-.77-4,16.59,16.59,0,0,0-2.27-3.7,29,29,0,0,0-7-6l.23,0-14.17,6.16L212,287.34l-.22.1-.11-.21c-3.63-7.15-7-13.87-10.38-19.71-1.69-2.93-3.36-5.64-4.94-8.17s-3-4.87-4.49-6.89a25.45,25.45,0,0,0-8.52-7.9c-.59-.35-1.14-.62-1.61-.85s-.88-.42-1.21-.56-.56-.24-.75-.33a1.85,1.85,0,0,1-.25-.12,24.43,24.43,0,0,1,8.08,4.56,29,29,0,0,1,4.53,5c1.5,2,3,4.36,4.56,6.87s3.28,5.23,5,8.16c3.44,5.84,6.82,12.56,10.46,19.7l-.33-.12L225,281.14,239.16,275l.12-.05.11.07a29.25,29.25,0,0,1,7.12,6.14,17.84,17.84,0,0,1,2.33,3.83,11.18,11.18,0,0,1,.79,4.24v.1l-.09.07-21.2,16.39-6,4.58-1.59,1.2-.41.3Z" style="fill:#263238"/><path d="M210.24,295.39c-.15-.06.61-1.94,1-4.37s.4-4.46.56-4.47a13.6,13.6,0,0,1-1.6,8.84Z" style="fill:#263238"/><polygon points="322.08 317.06 367.2 377.02 346.1 395.15 324.37 366.74 322.08 317.06" style="fill:#407BFF"/><path d="M226.54,319.92s72.6-22.11,79.25-21.83,19.27,24.29,19.27,24.29l-20.38-.74L278.91,361,237.24,359Z" style="fill:#407BFF"/><path d="M285.88,302.45c0,.14-7.42,2.48-16.66,5.23s-16.77,4.86-16.81,4.72,7.42-2.48,16.66-5.22S285.84,302.31,285.88,302.45Z" style="fill:#263238"/><path d="M302.75,321.25h20.38a24,24,0,0,1,22.62,16h0a37.05,37.05,0,0,1,2.05,14.08l-1.58,82.92H318.78l-.5-26.5-3.47-50.37-23.75,1-13.46-.84Z" style="fill:#407BFF"/><path d="M303.36,320.84a13.48,13.48,0,0,1-.39,1.75,43.71,43.71,0,0,1-1.44,4.68,48.17,48.17,0,0,1-3,6.6,53.76,53.76,0,0,1-5,7.39A132.63,132.63,0,0,1,282.46,353l-3.52,3.39a11,11,0,0,1-1.34,1.19,13.46,13.46,0,0,1,1.19-1.34c.79-.84,2-2,3.41-3.5,2.88-2.95,7-6.9,10.94-11.78a54,54,0,0,0,8.05-13.79c.72-1.92,1.28-3.5,1.59-4.6A11.15,11.15,0,0,1,303.36,320.84Z" style="fill:#263238"/><path d="M328.29,321.81a36.47,36.47,0,0,1-3.71-.18c-2.28-.13-5.44-.22-8.92-.15s-6.64.28-8.93.43a29.25,29.25,0,0,1-3.7.19,3.45,3.45,0,0,1,1-.21c.63-.1,1.55-.22,2.69-.35,2.28-.25,5.44-.51,8.95-.58a77.6,77.6,0,0,1,9,.31c1.14.1,2.07.22,2.7.33A4.11,4.11,0,0,1,328.29,321.81Z" style="fill:#263238"/><path d="M318.66,419.11a3.47,3.47,0,0,1-.07-.69c0-.51-.07-1.17-.11-2-.08-1.79-.2-4.27-.33-7.3-.27-6.16-.64-14.67-1.23-24.06s-1.29-17.89-1.8-24c-.24-3-.45-5.5-.59-7.28-.06-.82-.1-1.48-.14-2a2.79,2.79,0,0,1,0-.69,3.13,3.13,0,0,1,.12.68c.06.51.13,1.16.23,2,.19,1.77.44,4.24.76,7.26.6,6.14,1.35,14.63,1.95,24s.9,17.92,1.08,24.09c.06,3,.12,5.51.16,7.3,0,.82,0,1.48,0,2A3.08,3.08,0,0,1,318.66,419.11Z" style="fill:#263238"/><path d="M347.85,348.15c.14,0,0,19-.22,42.43S347,433,346.89,433s-.05-19,.22-42.44S347.7,348.15,347.85,348.15Z" style="fill:#263238"/><path d="M325.46,345.05a47.93,47.93,0,0,0-5.86,2.76,46.91,46.91,0,0,0-5.11,4,5.5,5.5,0,0,1,1.2-1.51,19,19,0,0,1,7.88-4.83A5.65,5.65,0,0,1,325.46,345.05Z" style="fill:#263238"/><g style="opacity:0.30000000000000004"><path d="M277.6,357.55c5.54,1.05,11.61-.69,16.35-3.73a22.57,22.57,0,0,0,9.6-13.42c.61-2.45.79-5,1.4-7.46a11.29,11.29,0,0,1,3.71-6.45c2.32-1.78,8-2.91,9.74-5.29,0-.36-6.78.45-9,.57-2.48.14-6.63.79-6.54.49a65.87,65.87,0,0,1-2.39,7.27c-4.95,8.73-15.8,21.56-22.82,28"/></g><path d="M163.1,260.27s-10.8.43-14.12,5c-5.83,8-2.55,14.92-2.88,17.28s18.37,133.73,18.37,133.73h7.7l139.18,1.29L318,401.3l-3.22-43.91-37.21.16S262.37,313.81,249,310.89c-9-2-30.21-1.28-42.95-.62a17.8,17.8,0,0,1-15.88-8.11Z" style="fill:#455a64"/><path d="M286.46,411.09s-.77.1-2.25.17-3.66.11-6.48.14c-5.64.08-13.84.1-24,.09-20.41,0-48.86-.18-81-.45h-.2l-.05-.2c-.58-2.75-1.17-5.58-1.77-8.45s-1.17-5.81-1.76-8.76c-7-35.62-11.08-68.26-13.28-91.93-1.11-11.83-1.77-21.43-2.19-28.07-.18-3.3-.32-5.87-.42-7.64,0-.86-.07-1.52-.1-2s0-.68,0-.68,0,.23.07.68.08,1.12.14,2c.12,1.76.3,4.33.52,7.63.48,6.63,1.2,16.22,2.35,28.05,2.3,23.65,6.45,56.26,13.43,91.86q.89,4.43,1.76,8.75t1.77,8.45l-.25-.2,81,.63,24,.06,6.48,0c.74,0,1.29-.06,1.67-.07Z" style="fill:#263238"/><path d="M285,417.3a2.47,2.47,0,0,1,.06-.63c.07-.46.15-1.05.26-1.77s.28-1.71.4-2.81.32-2.34.42-3.73.26-2.89.32-4.53.12-3.37.14-5.21a104.1,104.1,0,0,0-2.76-23.68c-.84-3.58-1.74-6.76-2.61-9.41-.39-1.33-.84-2.5-1.2-3.55s-.69-1.94-1-2.66l-.62-1.68a2.39,2.39,0,0,1-.18-.6,3.13,3.13,0,0,1,.28.56l.71,1.64c.31.72.68,1.6,1.06,2.64s.85,2.21,1.27,3.54c.91,2.63,1.86,5.82,2.73,9.41a109.62,109.62,0,0,1,2.11,11.81,104.37,104.37,0,0,1,.66,12c0,1.85-.06,3.6-.19,5.24s-.24,3.16-.39,4.54-.34,2.64-.49,3.73-.33,2-.49,2.8-.26,1.3-.36,1.76A3,3,0,0,1,285,417.3Z" style="fill:#263238"/><path d="M183,323.18a3.37,3.37,0,0,1,.56-.48l1.68-1.28,1.23-.92c.47-.3,1-.6,1.55-.94a34.37,34.37,0,0,1,3.87-2.16l2.32-1.13c.8-.4,1.69-.69,2.58-1.06s1.82-.75,2.8-1.06l3-1a87.19,87.19,0,0,1,13.82-2.87,100.59,100.59,0,0,1,14.09-.86c2.17,0,4.23.14,6.16.21s3.71.3,5.34.53a71.37,71.37,0,0,1,7.64,1.41l2,.56a3.58,3.58,0,0,1,.7.23,3.78,3.78,0,0,1-.73-.13l-2.06-.47c-1.78-.37-4.39-.86-7.64-1.23-1.62-.21-3.41-.31-5.32-.47s-4-.21-6.13-.16a106.34,106.34,0,0,0-14,.89,90,90,0,0,0-13.74,2.82l-3,.93c-1,.3-1.89.7-2.79,1s-1.78.64-2.58,1-1.58.74-2.32,1.09a35.9,35.9,0,0,0-3.88,2.08c-.56.32-1.09.61-1.57.9l-1.24.88-1.73,1.2A4.28,4.28,0,0,1,183,323.18Z" style="fill:#263238"/></g><g id="freepik--speech-bubble--inject-7"><path d="M452.61,155.57a3.11,3.11,0,1,0,3.11-3.11A3.12,3.12,0,0,0,452.61,155.57Z" style="fill:#263238"/><circle cx="443.26" cy="155.57" r="3.11" style="fill:#263238"/><path d="M427.73,154a3.11,3.11,0,1,0,4.25-1.14A3.11,3.11,0,0,0,427.73,154Z" style="fill:#263238"/><path d="M443.07,119.22a3.73,3.73,0,0,0-.63,0l-1.85.05c-.4,0-.86,0-1.36.06l-1.63.23-1.91.28-2.12.52a34.57,34.57,0,0,0-10.31,4.5,36.3,36.3,0,0,0-16.71,27.34,36,36,0,0,0-.1,5c.05.84,0,1.7.16,2.55s.26,1.7.39,2.57a36.57,36.57,0,0,0,3.46,10.14,39.2,39.2,0,0,0,6.63,9.12,38.53,38.53,0,0,0,9.54,6.86A34.82,34.82,0,0,0,438.27,192a22.88,22.88,0,0,0,3.1.26,27.43,27.43,0,0,0,3.14.06,38.37,38.37,0,0,0,6.29-.79,37,37,0,0,0,12.51-5.27l-.38,0,12.74,5.11.75.31-.21-.79c-1.29-4.67-2.54-9.22-3.75-13.62l-.06.34a36.75,36.75,0,0,0,6.8-15.57,33.24,33.24,0,0,0,.49-8,24.24,24.24,0,0,0-.36-3.83c-.09-.62-.19-1.24-.29-1.86s-.3-1.21-.44-1.81a36.4,36.4,0,0,0-14.22-20.72,35.37,35.37,0,0,0-8.46-4.47l-1.91-.68-1.81-.46-1.65-.41c-.53-.1-1-.15-1.52-.23-1-.12-1.81-.29-2.56-.32l-1.87-.07-1.14,0a2.29,2.29,0,0,0-.39,0,1.69,1.69,0,0,0,.39,0l1.14.09,1.86.13c.73.06,1.57.24,2.52.38a36.27,36.27,0,0,1,29,26.88c.14.59.32,1.18.43,1.78s.18,1.21.27,1.83a24.45,24.45,0,0,1,.34,3.76,32,32,0,0,1-.52,7.82,35.88,35.88,0,0,1-6.7,15.23l-.12.15,0,.19c1.2,4.4,2.45,9,3.72,13.63l.54-.48-12.74-5.13-.2-.08-.18.12a36,36,0,0,1-12.23,5.14,36.56,36.56,0,0,1-6.14.77,28.55,28.55,0,0,1-3.07,0,21.73,21.73,0,0,1-3-.26A33.73,33.73,0,0,1,427,187.69a37.52,37.52,0,0,1-9.35-6.69,38.55,38.55,0,0,1-6.51-8.91,36.05,36.05,0,0,1-3.43-9.93l-.39-2.51c-.12-.83-.11-1.68-.17-2.5a37.83,37.83,0,0,1,.08-4.89,36,36,0,0,1,16.28-27,34.72,34.72,0,0,1,10.14-4.58l2.1-.55,1.88-.31,1.62-.27c.5-.06.95-.07,1.35-.1l1.84-.13A3.08,3.08,0,0,0,443.07,119.22Z" style="fill:#263238"/></g></svg>