<?xml version="1.0" encoding="utf-8"?>
<!-- Generator: Adobe Illustrator 26.0.1, SVG Export Plug-In . SVG Version: 6.00 Build 0)  -->
<svg version="1.1" id="Layer_1" xmlns="http://www.w3.org/2000/svg" xmlns:xlink="http://www.w3.org/1999/xlink" x="0px" y="0px"
	 viewBox="0 0 1920 1080" style="enable-background:new 0 0 1920 1080;" xml:space="preserve">
<style type="text/css">
	.st0{enable-background:new    ;}
	.st1{fill:url(#SVGID_1_);}
	.st2{fill:url(#SVGID_00000163770466173370073740000002761528626912696253_);}
	.st3{fill:url(#SVGID_00000161630359970910649930000006768687615514115720_);}
	.st4{fill:url(#SVGID_00000181782551303910625880000009733436180659952806_);}
</style>
<g>
	<g class="st0">
		<path d="M294.4,402.3c30.1,0,53.3,5.3,69.4,15.9c16.1,10.6,24.2,28,24.2,52.1c0,24.3-8.2,41.9-24.5,52.7s-39.7,16.2-70,16.2h-14.3
			v67.7h-45.5V407.5c9.9-1.9,20.4-3.3,31.5-4.1C276.3,402.7,286,402.3,294.4,402.3z M297.3,441.1c-3.3,0-6.6,0.1-9.8,0.3
			c-3.2,0.2-6,0.4-8.3,0.6v58.3h14.3c15.8,0,27.6-2.1,35.6-6.4c8-4.3,12-12.3,12-23.9c0-5.6-1-10.3-3.1-14c-2-3.7-5-6.7-8.8-8.9
			c-3.8-2.2-8.4-3.8-13.9-4.7C309.9,441.5,303.9,441.1,297.3,441.1z"/>
		<path d="M511.1,491.8c-3.9-1-8.5-2-13.7-3.1c-5.3-1.1-10.9-1.6-16.9-1.6c-2.7,0-6,0.2-9.8,0.7c-3.8,0.5-6.7,1-8.6,1.6v117.3h-43.5
			V461.5c7.8-2.7,17-5.3,27.6-7.7c10.6-2.4,22.4-3.6,35.4-3.6c2.3,0,5.2,0.1,8.5,0.4c3.3,0.3,6.6,0.7,9.9,1.2
			c3.3,0.5,6.6,1.1,9.9,1.8c3.3,0.7,6.1,1.5,8.5,2.5L511.1,491.8z"/>
		<path d="M682.3,529.8c0,12.1-1.8,23.1-5.3,33.1c-3.5,10-8.6,18.6-15.2,25.7c-6.6,7.1-14.5,12.6-23.8,16.5
			c-9.2,3.9-19.6,5.8-31.1,5.8c-11.3,0-21.5-1.9-30.8-5.8c-9.2-3.9-17.2-9.4-23.8-16.5c-6.6-7.1-11.8-15.7-15.5-25.7
			c-3.7-10-5.5-21-5.5-33.1c0-12.1,1.9-23,5.7-33c3.8-9.9,9-18.4,15.8-25.4s14.7-12.4,23.9-16.3c9.2-3.9,19.3-5.8,30.2-5.8
			c11.1,0,21.2,1.9,30.5,5.8c9.2,3.9,17.2,9.3,23.8,16.3c6.6,7,11.8,15.5,15.5,25.4C680.5,506.7,682.3,517.7,682.3,529.8z
			 M638,529.8c0-13.4-2.7-24-8-31.7c-5.4-7.7-13-11.5-22.9-11.5s-17.6,3.8-23,11.5c-5.4,7.7-8.2,18.2-8.2,31.7s2.7,24.1,8.2,31.9
			c5.4,7.9,13.1,11.8,23,11.8s17.5-3.9,22.9-11.8C635.3,553.8,638,543.2,638,529.8z"/>
		<path d="M851.2,601.8c-3.9,1.2-8.4,2.3-13.4,3.4c-5.1,1.1-10.4,2-15.9,2.8c-5.5,0.8-11.2,1.4-16.9,1.9c-5.7,0.5-11.2,0.7-16.5,0.7
			c-12.6,0-23.9-1.9-33.8-5.5c-9.9-3.7-18.3-9-25.1-15.9c-6.8-6.9-12-15.3-15.6-25.1c-3.6-9.8-5.4-20.9-5.4-33.1
			c0-12.4,1.6-23.7,4.7-33.7c3.1-10,7.6-18.5,13.4-25.5c5.8-7,13-12.3,21.4-16c8.5-3.7,18.1-5.5,29-5.5c6,0,11.4,0.6,16.2,1.8
			c4.8,1.2,9.6,2.8,14.4,5v-69.4l43.5-7V601.8z M752.9,528.9c0,13.4,3,24.2,9,32.4c6,8.2,15,12.3,26.8,12.3c3.9,0,7.5-0.1,10.8-0.4
			c3.3-0.3,6-0.6,8.2-1V493c-2.7-1.8-6.3-3.2-10.6-4.4s-8.8-1.8-13.3-1.8C763.2,486.9,752.9,500.9,752.9,528.9z"/>
		<path d="M1023.1,601.5c-7.4,2.1-16.9,4.1-28.6,6c-11.7,1.8-23.9,2.8-36.8,2.8c-13,0-23.9-1.8-32.5-5.3
			c-8.7-3.5-15.5-8.4-20.6-14.7c-5.1-6.3-8.7-13.9-10.8-22.6c-2.1-8.8-3.2-18.4-3.2-28.9v-85.5h43.5v80.2c0,14,1.8,24.1,5.5,30.3
			c3.7,6.2,10.6,9.3,20.7,9.3c3.1,0,6.4-0.1,9.9-0.4c3.5-0.3,6.6-0.6,9.3-1V453.3h43.5V601.5z"/>
		<path d="M1056.6,530.1c0-11.1,1.8-21.5,5.4-31.4c3.6-9.8,8.8-18.4,15.6-25.7c6.8-7.3,15.1-13.1,24.8-17.4
			c9.7-4.3,20.8-6.4,33.3-6.4c8.2,0,15.7,0.7,22.5,2.2c6.8,1.5,13.4,3.6,19.8,6.3l-9,34.7c-4.1-1.6-8.6-2.9-13.4-4.1
			c-4.9-1.2-10.3-1.8-16.3-1.8c-12.8,0-22.4,4-28.7,12c-6.3,8-9.5,18.5-9.5,31.5c0,13.8,3,24.5,8.9,32.1
			c5.9,7.6,16.3,11.4,31.1,11.4c5.3,0,10.9-0.5,16.9-1.5c6-1,11.6-2.5,16.6-4.7l6.1,35.6c-5.1,2.1-11.4,4-19,5.5
			c-7.6,1.6-15.9,2.3-25.1,2.3c-14,0-26.1-2.1-36.2-6.3c-10.1-4.2-18.4-9.9-24.9-17.1c-6.5-7.2-11.3-15.7-14.3-25.5
			C1058.1,552.2,1056.6,541.5,1056.6,530.1z"/>
		<path d="M1208.3,415.1l43.5-7v45.2h52.2v36.2h-52.2v54c0,9.1,1.6,16.4,4.8,21.9c3.2,5.4,9.7,8.2,19.4,8.2c4.7,0,9.5-0.4,14.4-1.3
			c5-0.9,9.5-2.1,13.6-3.6l6.1,33.8c-5.3,2.1-11.1,4-17.5,5.5c-6.4,1.6-14.3,2.3-23.6,2.3c-11.9,0-21.7-1.6-29.5-4.8
			c-7.8-3.2-14-7.7-18.7-13.4c-4.7-5.7-7.9-12.7-9.8-20.9c-1.9-8.2-2.8-17.2-2.8-27.1V415.1z"/>
	</g>
	<g>
		
			<linearGradient id="SVGID_1_" gradientUnits="userSpaceOnUse" x1="1538" y1="650.95" x2="1710.2993" y2="650.95" gradientTransform="matrix(1 0 0 -1 0 1080)">
			<stop  offset="0" style="stop-color:#0900D4"/>
			<stop  offset="0.7492" style="stop-color:#4393DC"/>
		</linearGradient>
		<path class="st1" d="M1706.6,378.1l-117.1,124.7l-51.5-54.9l68.3-72.7c12-12.7,28.2-19.9,45.1-19.9h46.4
			C1708.9,355.3,1714.5,369.7,1706.6,378.1z"/>
		
			<linearGradient id="SVGID_00000178179032902491571380000015458620934127094424_" gradientUnits="userSpaceOnUse" x1="1538" y1="502.7" x2="1688.1993" y2="502.7" gradientTransform="matrix(1 0 0 -1 0 1080)">
			<stop  offset="0" style="stop-color:#0900D4"/>
			<stop  offset="0.7492" style="stop-color:#4393DC"/>
		</linearGradient>
		<path style="fill:url(#SVGID_00000178179032902491571380000015458620934127094424_);" d="M1675.7,639.3h-46.4
			c-16.9,0-33.1-7.2-45.1-19.9l-46.2-49.2l51.5-54.9l95,101.2C1692.4,625,1686.8,639.3,1675.7,639.3z"/>
		
			<linearGradient id="SVGID_00000042006670356685961830000009274284834863069867_" gradientUnits="userSpaceOnUse" x1="1353.9039" y1="582.55" x2="1583.6" y2="582.55" gradientTransform="matrix(1 0 0 -1 0 1080)">
			<stop  offset="0" style="stop-color:#0900D4"/>
			<stop  offset="0.7492" style="stop-color:#4393DC"/>
		</linearGradient>
		<path style="fill:url(#SVGID_00000042006670356685961830000009274284834863069867_);" d="M1583.6,509.1l-51.5,54.9l-52.1,55.5
			c-12,12.7-28.2,19.9-45.1,19.9h-46.4c-11.1,0-16.7-14.4-8.9-22.7l101-107.5l-123-131c-7.9-8.4-2.3-22.7,8.9-22.7h46.4
			c16.9,0,33.1,7.2,45.1,19.9l74.2,79L1583.6,509.1z"/>
		
			<linearGradient id="SVGID_00000157296900880055938100000018055533163207160706_" gradientUnits="userSpaceOnUse" x1="1353.9039" y1="582.55" x2="1583.6" y2="582.55" gradientTransform="matrix(1 0 0 -1 0 1080)">
			<stop  offset="0" style="stop-color:#0900D4"/>
			<stop  offset="0.7492" style="stop-color:#4393DC"/>
		</linearGradient>
		<path style="fill:url(#SVGID_00000157296900880055938100000018055533163207160706_);" d="M1583.6,509.1l-51.5,54.9l-52.1,55.5
			c-12,12.7-28.2,19.9-45.1,19.9h-46.4c-11.1,0-16.7-14.4-8.9-22.7l101-107.5l-123-131c-7.9-8.4-2.3-22.7,8.9-22.7h46.4
			c16.9,0,33.1,7.2,45.1,19.9l74.2,79L1583.6,509.1z"/>
	</g>
</g>
</svg>
